<svg width="256" height="256" viewBox="0 0 256 256" fill="none" xmlns="http://www.w3.org/2000/svg">
  <rect width="256" height="256" rx="48" fill="#1B1B1D"/>
  <rect x="16" y="16" width="224" height="224" rx="36" fill="#2F6FED"/>
  <path d="M84 180V76H120.4C133.067 76 143.267 79.2 151 85.6C158.733 92 162.6 101.067 162.6 112.8C162.6 124.4 158.667 133.4 150.8 139.8C142.933 146.2 132.667 149.4 120 149.4H104.6V180H84ZM104.6 132H119.2C126.267 132 131.667 130.267 135.4 126.8C139.267 123.333 141.2 118.667 141.2 112.8C141.2 106.8 139.267 102.067 135.4 98.6C131.667 95 126.267 93.2 119.2 93.2H104.6V132ZM176.408 180V76H197.008V180H176.408Z" fill="white"/>
</svg>
